<svg width="90" height="90" viewBox="0 0 90 90" fill="none" xmlns="http://www.w3.org/2000/svg">
<path d="M14.625 15.75C12.7547 15.75 11.25 17.2547 11.25 19.125V25.875C11.25 27.7453 12.7547 29.25 14.625 29.25H21.375C23.2453 29.25 24.75 27.7453 24.75 25.875V19.125C24.75 17.2547 23.2453 15.75 21.375 15.75H14.625ZM36 18C33.5109 18 31.5 20.0109 31.5 22.5C31.5 24.9891 33.5109 27 36 27H76.5C78.9891 27 81 24.9891 81 22.5C81 20.0109 78.9891 18 76.5 18H36ZM36 40.5C33.5109 40.5 31.5 42.5109 31.5 45C31.5 47.4891 33.5109 49.5 36 49.5H76.5C78.9891 49.5 81 47.4891 81 45C81 42.5109 78.9891 40.5 76.5 40.5H36ZM36 63C33.5109 63 31.5 65.0109 31.5 67.5C31.5 69.9891 33.5109 72 36 72H76.5C78.9891 72 81 69.9891 81 67.5C81 65.0109 78.9891 63 76.5 63H36ZM11.25 41.625V48.375C11.25 50.2453 12.7547 51.75 14.625 51.75H21.375C23.2453 51.75 24.75 50.2453 24.75 48.375V41.625C24.75 39.7547 23.2453 38.25 21.375 38.25H14.625C12.7547 38.25 11.25 39.7547 11.25 41.625ZM14.625 60.75C12.7547 60.75 11.25 62.2547 11.25 64.125V70.875C11.25 72.7453 12.7547 74.25 14.625 74.25H21.375C23.2453 74.25 24.75 72.7453 24.75 70.875V64.125C24.75 62.2547 23.2453 60.75 21.375 60.75H14.625Z" fill="black"/>
</svg>
