<svg width="90" height="90" viewBox="0 0 90 90" fill="none" xmlns="http://www.w3.org/2000/svg">
<path d="M54.1688 28.3922C54.5203 27.5484 55.3359 27 56.25 27H61.875V23.625C61.875 21.7547 60.3703 20.25 58.5 20.25H44.7188C44.9016 20.9672 45 21.7266 45 22.5V31.5C45 36.4641 40.9641 40.5 36 40.5H22.5C17.5359 40.5 13.5 36.4641 13.5 31.5V22.5C13.5 17.5359 17.5359 13.5 22.5 13.5H58.5C64.0969 13.5 68.625 18.0281 68.625 23.625V27H74.25C75.1641 27 75.9797 27.5484 76.3312 28.3922C76.6828 29.2359 76.4859 30.2063 75.8391 30.8391L66.8391 39.8391C65.9672 40.7109 64.5328 40.7109 63.6609 39.8391L54.6609 30.8391C54.0141 30.1922 53.8313 29.2219 54.1688 28.3922ZM67.5 76.5H22.5C17.5359 76.5 13.5 72.4641 13.5 67.5V58.5C13.5 53.5359 17.5359 49.5 22.5 49.5H67.5C72.4641 49.5 76.5 53.5359 76.5 58.5V67.5C76.5 72.4641 72.4641 76.5 67.5 76.5ZM36 31.5V22.5H22.5V31.5H36Z" fill="black"/>
</svg>
