<svg width="125" height="56" viewBox="0 0 125 56" fill="none" xmlns="http://www.w3.org/2000/svg">
<g clip-path="url(#clip0_438_553)">
<path d="M42.3 0H10.575C4.73459 0 0 4.96964 0 11.1V44.4C0 50.5304 4.73459 55.5 10.575 55.5H42.3C48.1404 55.5 52.875 50.5304 52.875 44.4V11.1C52.875 4.96964 48.1404 0 42.3 0Z" fill="#1C3D34"/>
<path d="M38.0657 14.7496C38.773 13.7744 40.0988 13.5862 41.027 14.3293C41.9551 15.0723 42.1342 16.4653 41.427 17.4406L24.5236 40.7504C24.1541 41.2599 23.5931 41.577 22.9848 41.62C22.3765 41.663 21.7799 41.4277 21.3488 40.9748L12.3689 31.5398C11.5437 30.6729 11.5437 29.267 12.3689 28.4001C13.194 27.5331 14.532 27.5331 15.3572 28.4001L22.6273 36.0386L38.0657 14.7496Z" fill="#F4F1EA"/>
<path d="M39.6562 18.5C40.873 18.5 41.8594 17.4647 41.8594 16.1875C41.8594 14.9103 40.873 13.875 39.6562 13.875C38.4395 13.875 37.4531 14.9103 37.4531 16.1875C37.4531 17.4647 38.4395 18.5 39.6562 18.5Z" fill="#D8732B"/>
<path d="M116.687 20.4902H119.696V22.736H119.741C119.89 22.3617 120.09 22.0186 120.343 21.7067C120.595 21.3792 120.885 21.1062 121.212 20.8879C121.539 20.6539 121.888 20.4746 122.259 20.3498C122.631 20.225 123.017 20.1627 123.418 20.1627C123.626 20.1627 123.857 20.2016 124.109 20.2796V23.3677C123.961 23.3365 123.782 23.3131 123.574 23.2975C123.366 23.2663 123.166 23.2507 122.973 23.2507C122.393 23.2507 121.903 23.3521 121.502 23.5549C121.101 23.7576 120.774 24.0383 120.521 24.3971C120.283 24.7402 120.112 25.1457 120.008 25.6136C119.904 26.0814 119.852 26.5883 119.852 27.1342V32.5851H116.687V20.4902Z" fill="#1C3D34"/>
<path d="M104.179 15.8815H107.344V24.8415L111.334 20.4902H115.078L110.732 24.9351L115.568 32.5851H111.735L108.57 27.181L107.344 28.4209V32.5851H104.179V15.8815Z" fill="#1C3D34"/>
<path d="M95.2266 20.4902H98.2355V22.736H98.2801C98.4287 22.3617 98.6293 22.0186 98.8819 21.7067C99.1345 21.3792 99.4242 21.1062 99.7511 20.8879C100.078 20.6539 100.427 20.4746 100.799 20.3498C101.17 20.225 101.556 20.1627 101.958 20.1627C102.166 20.1627 102.396 20.2016 102.649 20.2796V23.3677C102.5 23.3365 102.322 23.3131 102.114 23.2975C101.906 23.2663 101.705 23.2507 101.512 23.2507C100.932 23.2507 100.442 23.3521 100.041 23.5549C99.6397 23.7576 99.3128 24.0383 99.0602 24.3971C98.8224 24.7402 98.6516 25.1457 98.5476 25.6136C98.4435 26.0814 98.3915 26.5883 98.3915 27.1342V32.5851H95.2266V20.4902Z" fill="#1C3D34"/>
<path d="M82.2948 24.2099C82.3393 23.4301 82.5251 22.7828 82.852 22.2682C83.1788 21.7535 83.5949 21.3402 84.1001 21.0283C84.6053 20.7163 85.1699 20.498 85.794 20.3732C86.4329 20.2328 87.0718 20.1627 87.7107 20.1627C88.2902 20.1627 88.8771 20.2094 89.4715 20.303C90.0658 20.381 90.6082 20.5448 91.0985 20.7943C91.5888 21.0438 91.99 21.3948 92.302 21.8471C92.6141 22.2838 92.7701 22.8686 92.7701 23.6016V29.8947C92.7701 30.4406 92.7998 30.9631 92.8592 31.4622C92.9187 31.9613 93.0227 32.3356 93.1713 32.5851H89.9618C89.9024 32.3979 89.8504 32.2108 89.8058 32.0236C89.7761 31.8209 89.7538 31.6181 89.7389 31.4154C89.2337 31.9613 88.6394 32.3434 87.9559 32.5617C87.2724 32.7801 86.574 32.8892 85.8608 32.8892C85.3111 32.8892 84.7984 32.819 84.323 32.6787C83.8475 32.5383 83.4314 32.32 83.0748 32.0236C82.7182 31.7273 82.4359 31.353 82.2279 30.9007C82.0347 30.4484 81.9382 29.9103 81.9382 29.2865C81.9382 28.6003 82.0496 28.0388 82.2725 27.6021C82.5102 27.1498 82.8074 26.7911 83.164 26.5259C83.5355 26.2608 83.9515 26.0659 84.4121 25.9411C84.8876 25.8007 85.3631 25.6915 85.8385 25.6136C86.314 25.5356 86.7821 25.4732 87.2427 25.4264C87.7033 25.3796 88.1119 25.3094 88.4685 25.2159C88.8251 25.1223 89.1074 24.9897 89.3155 24.8182C89.5235 24.631 89.6201 24.3659 89.6052 24.0227C89.6052 23.664 89.5458 23.3833 89.4269 23.1805C89.3229 22.9622 89.1743 22.7984 88.9811 22.6893C88.8028 22.5645 88.5874 22.4865 88.3348 22.4553C88.097 22.4085 87.837 22.3851 87.5547 22.3851C86.9306 22.3851 86.4403 22.5255 86.0837 22.8062C85.7271 23.087 85.5191 23.5548 85.4596 24.2099H82.2948ZM89.6052 26.6663C89.4715 26.7911 89.3006 26.8925 89.0926 26.9704C88.8994 27.0328 88.684 27.0874 88.4462 27.1342C88.2234 27.181 87.9856 27.22 87.733 27.2512C87.4804 27.2824 87.2278 27.3214 86.9752 27.3681C86.7375 27.4149 86.4997 27.4773 86.262 27.5553C86.0391 27.6333 85.8385 27.7425 85.6602 27.8828C85.4968 28.0076 85.3631 28.1714 85.2591 28.3741C85.155 28.5769 85.103 28.8342 85.103 29.1461C85.103 29.4424 85.155 29.692 85.2591 29.8947C85.3631 30.0975 85.5042 30.2613 85.6825 30.386C85.8608 30.4952 86.0688 30.5732 86.3066 30.62C86.5443 30.6668 86.7895 30.6902 87.0421 30.6902C87.6662 30.6902 88.1491 30.581 88.4908 30.3626C88.8326 30.1443 89.0852 29.8869 89.2486 29.5906C89.412 29.2787 89.5086 28.9668 89.5383 28.6548C89.5829 28.3429 89.6052 28.0934 89.6052 27.9062V26.6663Z" fill="#1C3D34"/>
<path d="M62.3192 20.4902H65.3058V22.1278H65.3504C65.7664 21.5039 66.2642 21.0205 66.8437 20.6773C67.438 20.3342 68.1141 20.1627 68.8719 20.1627C69.5999 20.1627 70.2611 20.3108 70.8555 20.6072C71.4647 20.9035 71.9253 21.426 72.2373 22.1746C72.5791 21.6443 73.0397 21.1764 73.6192 20.7709C74.2135 20.3654 74.9119 20.1627 75.7142 20.1627C76.3235 20.1627 76.8881 20.2406 77.4081 20.3966C77.9282 20.5526 78.3739 20.8021 78.7454 21.1452C79.1169 21.4883 79.4066 21.9406 79.6146 22.5021C79.8227 23.048 79.9267 23.7108 79.9267 24.4906V32.5851H76.7618V25.7305C76.7618 25.325 76.7469 24.9429 76.7172 24.5842C76.6875 24.2255 76.6058 23.9136 76.472 23.6484C76.3383 23.3833 76.1377 23.1727 75.8703 23.0168C75.6177 22.8608 75.2685 22.7828 74.8227 22.7828C74.377 22.7828 74.0129 22.8764 73.7306 23.0636C73.4632 23.2351 73.2477 23.4691 73.0843 23.7654C72.9357 24.0461 72.8317 24.3737 72.7722 24.748C72.7277 25.1067 72.7054 25.4732 72.7054 25.8475V32.5851H69.5405V25.8007C69.5405 25.442 69.5331 25.0911 69.5182 24.748C69.5033 24.3893 69.4365 24.0617 69.3176 23.7654C69.2136 23.4691 69.0279 23.2351 68.7604 23.0636C68.5078 22.8764 68.1289 22.7828 67.6237 22.7828C67.4751 22.7828 67.2746 22.8218 67.022 22.8998C66.7842 22.9622 66.5465 23.0948 66.3087 23.2975C66.0859 23.4847 65.8927 23.7654 65.7293 24.1397C65.5658 24.4984 65.4841 24.9741 65.4841 25.5668V32.5851H62.3192V20.4902Z" fill="#1C3D34"/>
</g>
<defs>
<clipPath id="clip0_438_553">
<rect width="124.109" height="55.5" fill="white"/>
</clipPath>
</defs>
</svg>
