<svg width="90" height="90" viewBox="0 0 90 90" fill="none" xmlns="http://www.w3.org/2000/svg">
<path d="M74.25 45C74.25 61.1578 61.1578 74.25 45 74.25C28.8422 74.25 15.75 61.1578 15.75 45C15.75 28.8422 28.8422 15.75 45 15.75C61.1578 15.75 74.25 28.8422 74.25 45ZM9 45C9 64.8844 25.1156 81 45 81C64.8844 81 81 64.8844 81 45C81 25.1156 64.8844 9 45 9C25.1156 9 9 25.1156 9 45ZM41.625 25.875V45C41.625 46.125 42.1875 47.1797 43.1297 47.8125L56.6297 56.8125C58.1766 57.8531 60.2719 57.4312 61.3125 55.8703C62.3531 54.3094 61.9312 52.2281 60.3703 51.1875L48.375 43.2V25.875C48.375 24.0047 46.8703 22.5 45 22.5C43.1297 22.5 41.625 24.0047 41.625 25.875Z" fill="black"/>
</svg>
