<svg width="90" height="90" viewBox="0 0 90 90" fill="none" xmlns="http://www.w3.org/2000/svg">
<path d="M4.5 36C4.5 31.0359 8.53594 27 13.5 27H22.5L40.4859 10.814C43.0594 8.50779 46.9547 8.50779 49.5141 10.814L67.5 27H76.5C81.4641 27 85.5 31.0359 85.5 36V72C85.5 76.964 81.4641 81 76.5 81H13.5C8.53594 81 4.5 76.964 4.5 72V36ZM36 61.875V74.25H54V61.875C54 58.7672 51.4828 56.25 48.375 56.25H41.625C38.5172 56.25 36 58.7672 36 61.875ZM20.25 63C21.4875 63 22.5 61.9875 22.5 60.75V56.25C22.5 55.0125 21.4875 54 20.25 54H15.75C14.5125 54 13.5 55.0125 13.5 56.25V60.75C13.5 61.9875 14.5125 63 15.75 63H20.25ZM22.5 42.75V38.25C22.5 37.0125 21.4875 36 20.25 36H15.75C14.5125 36 13.5 37.0125 13.5 38.25V42.75C13.5 43.9875 14.5125 45 15.75 45H20.25C21.4875 45 22.5 43.9875 22.5 42.75ZM74.25 63C75.4875 63 76.5 61.9875 76.5 60.75V56.25C76.5 55.0125 75.4875 54 74.25 54H69.75C68.5125 54 67.5 55.0125 67.5 56.25V60.75C67.5 61.9875 68.5125 63 69.75 63H74.25ZM76.5 42.75V38.25C76.5 37.0125 75.4875 36 74.25 36H69.75C68.5125 36 67.5 37.0125 67.5 38.25V42.75C67.5 43.9875 68.5125 45 69.75 45H74.25C75.4875 45 76.5 43.9875 76.5 42.75ZM45 45C49.9641 45 54 40.964 54 36C54 31.0359 49.9641 27 45 27C40.0359 27 36 31.0359 36 36C36 40.964 40.0359 45 45 45Z" fill="black"/>
</svg>
